<?xml version="1.0" encoding="utf-8"?>
<!-- Generator: Adobe Illustrator 14.0.0, SVG Export Plug-In . SVG Version: 6.00 Build 43363)  -->
<!DOCTYPE svg PUBLIC "-//W3C//DTD SVG 1.1//EN" "http://www.w3.org/Graphics/SVG/1.1/DTD/svg11.dtd">
<svg version="1.1" id="Layer_1" xmlns="http://www.w3.org/2000/svg" xmlns:xlink="http://www.w3.org/1999/xlink" x="0px" y="0px"
	 width="150px" height="25px" viewBox="0 0 150 25" enable-background="new 0 0 150 25" xml:space="preserve">
<g>
	<path fill="#4E5982" d="M14.372,9.662c0.546-0.783,0.819-1.742,0.819-2.88V6.738c0-0.798-0.118-1.492-0.354-2.083
		c-0.237-0.59-0.591-1.122-1.063-1.595c-0.546-0.546-1.267-0.978-2.16-1.296C10.72,1.447,9.579,1.288,8.191,1.288H0.615v15.507
		h5.184v-4.431h1.063h0.044l2.924,4.431h5.915l-3.611-5.272C13.079,11.065,13.825,10.445,14.372,9.662z M10.03,7.159
		c0,0.473-0.177,0.842-0.532,1.107S8.656,8.665,8.036,8.665H5.798V5.63h2.26c0.605,0,1.085,0.122,1.44,0.366
		s0.532,0.617,0.532,1.119V7.159z"/>
	<polygon fill="#4E5982" points="29.79,12.542 21.549,12.542 21.549,10.858 29.125,10.858 29.125,7.114 21.549,7.114 21.549,5.542 
		29.679,5.542 29.679,1.288 16.454,1.288 16.454,16.795 29.79,16.795 	"/>
	<polygon fill="#4E5982" points="45.163,12.542 38.141,12.542 45.163,4.921 45.163,1.288 30.963,1.288 30.963,5.542 37.72,5.542 
		30.698,13.162 30.698,16.795 45.163,16.795 	"/>
	<path fill="#4E5982" d="M62.997,9.042V8.997c0-1.122-0.214-2.174-0.643-3.157c-0.429-0.982-1.023-1.835-1.783-2.559
		C59.81,2.558,58.917,1.99,57.89,1.576s-2.138-0.621-3.334-0.621s-2.312,0.21-3.345,0.631S49.28,2.584,48.52,3.315
		s-1.359,1.588-1.794,2.57c-0.436,0.982-0.653,2.035-0.653,3.157v0.044c0,1.123,0.214,2.175,0.643,3.157
		c0.428,0.982,1.022,1.835,1.783,2.558c0.76,0.725,1.654,1.293,2.68,1.706s2.138,0.62,3.334,0.62s2.312-0.21,3.345-0.631
		s1.931-0.997,2.691-1.728c0.761-0.731,1.359-1.588,1.794-2.57C62.778,11.216,62.997,10.164,62.997,9.042z M57.769,9.086
		c0,0.458-0.074,0.894-0.222,1.307c-0.148,0.414-0.362,0.779-0.643,1.097c-0.281,0.318-0.62,0.573-1.019,0.764
		c-0.398,0.192-0.842,0.288-1.329,0.288c-0.502,0-0.953-0.096-1.351-0.288c-0.399-0.191-0.739-0.45-1.019-0.775
		c-0.281-0.324-0.499-0.698-0.654-1.119C51.377,9.938,51.3,9.5,51.3,9.042V8.997c0-0.458,0.074-0.893,0.222-1.307
		c0.147-0.413,0.361-0.779,0.642-1.096c0.28-0.317,0.621-0.572,1.019-0.765c0.399-0.191,0.842-0.288,1.329-0.288
		c0.502,0,0.953,0.096,1.352,0.288c0.399,0.192,0.738,0.451,1.019,0.775c0.28,0.325,0.499,0.698,0.653,1.119
		c0.155,0.421,0.233,0.861,0.233,1.318V9.086z"/>
	<polygon fill="#4E5982" points="79.92,1.288 74.781,1.288 74.781,8.133 69.266,1.288 64.414,1.288 64.414,16.795 69.553,16.795 
		69.553,9.64 75.313,16.795 79.92,16.795 	"/>
	<path fill="#4E5982" d="M87.098,1.177l-6.535,15.618h5.539l0.797-2.083h5.428l0.819,2.083h5.627L92.237,1.177H87.098z
		 M88.206,11.035l1.417-3.766l1.418,3.766H88.206z"/>
	<polygon fill="#4E5982" points="109.783,8.133 104.267,1.288 99.415,1.288 99.415,16.795 104.555,16.795 104.555,9.64 
		110.314,16.795 114.922,16.795 114.922,1.288 109.783,1.288 	"/>
	<polygon fill="#4E5982" points="130.406,1.288 116.096,1.288 116.096,5.674 120.659,5.674 120.659,16.795 125.843,16.795 
		125.843,5.674 130.406,5.674 	"/>
	<path fill="#4E5982" d="M142.125,1.177h-5.14l-6.535,15.618h5.539l0.797-2.083h5.428l0.819,2.083h5.627L142.125,1.177z
		 M138.094,11.035l1.417-3.766l1.418,3.766H138.094z"/>
	<polygon fill="#4E5982" points="1.714,21.652 4.151,21.652 4.151,20.641 1.714,20.641 1.714,19.592 4.483,19.592 4.483,18.58 
		0.591,18.58 0.591,23.75 4.521,23.75 4.521,22.738 1.714,22.738 	"/>
	<path fill="#4E5982" d="M12.15,21.542c0,0.413-0.099,0.724-0.295,0.931c-0.197,0.206-0.47,0.31-0.82,0.31s-0.623-0.106-0.82-0.321
		c-0.197-0.214-0.295-0.533-0.295-0.956V18.58H8.782v2.954c0,0.764,0.2,1.337,0.599,1.721c0.398,0.385,0.945,0.576,1.64,0.576
		c0.344,0,0.657-0.048,0.938-0.144c0.281-0.097,0.52-0.241,0.716-0.437c0.197-0.194,0.348-0.437,0.454-0.728
		c0.106-0.29,0.159-0.632,0.159-1.026V18.58H12.15V21.542z"/>
	<path fill="#4E5982" d="M21.778,21.323c0.204-0.263,0.307-0.604,0.307-1.022v-0.015c0-0.492-0.148-0.887-0.443-1.182
		c-0.35-0.35-0.852-0.524-1.507-0.524h-2.363v5.17h1.137v-1.654h0.879h0.015l1.108,1.654h1.33l-1.263-1.847
		C21.306,21.78,21.573,21.587,21.778,21.323z M20.932,20.359c0,0.222-0.075,0.399-0.226,0.532c-0.15,0.133-0.365,0.199-0.646,0.199
		h-1.152v-1.484h1.13c0.28,0,0.5,0.062,0.657,0.185c0.157,0.123,0.236,0.308,0.236,0.554V20.359z"/>
	<path fill="#4E5982" d="M30.929,19.271c-0.244-0.239-0.533-0.429-0.868-0.569c-0.335-0.14-0.702-0.21-1.101-0.21
		s-0.767,0.07-1.104,0.21c-0.337,0.141-0.628,0.333-0.872,0.576c-0.244,0.244-0.435,0.527-0.573,0.85s-0.207,0.669-0.207,1.038
		v0.015c0,0.369,0.067,0.715,0.203,1.038c0.135,0.322,0.325,0.603,0.568,0.842c0.244,0.238,0.533,0.429,0.868,0.568
		c0.334,0.141,0.702,0.211,1.101,0.211s0.767-0.07,1.104-0.211c0.337-0.14,0.628-0.332,0.872-0.576
		c0.244-0.243,0.435-0.526,0.572-0.85c0.138-0.322,0.207-0.668,0.207-1.037V21.15c0-0.369-0.068-0.716-0.203-1.038
		C31.362,19.79,31.173,19.509,30.929,19.271z M30.512,21.18c0,0.222-0.039,0.43-0.115,0.624s-0.182,0.365-0.317,0.514
		c-0.136,0.147-0.299,0.264-0.491,0.347c-0.192,0.084-0.401,0.126-0.628,0.126c-0.231,0-0.442-0.043-0.631-0.13
		c-0.19-0.086-0.354-0.203-0.495-0.351c-0.14-0.147-0.249-0.32-0.325-0.517c-0.077-0.197-0.115-0.406-0.115-0.628V21.15
		c0-0.222,0.038-0.43,0.115-0.624c0.076-0.195,0.182-0.366,0.317-0.514s0.298-0.264,0.487-0.348c0.189-0.083,0.4-0.125,0.632-0.125
		c0.226,0,0.436,0.043,0.627,0.129c0.192,0.087,0.358,0.203,0.499,0.352c0.14,0.147,0.249,0.319,0.325,0.517
		s0.115,0.406,0.115,0.628V21.18z"/>
	<path fill="#4E5982" d="M39.6,19.074c-0.17-0.157-0.376-0.279-0.62-0.365c-0.244-0.086-0.521-0.129-0.831-0.129h-2.112v5.17h1.137
		v-1.551h0.864c0.291,0,0.562-0.038,0.816-0.115c0.254-0.076,0.476-0.19,0.665-0.343s0.338-0.343,0.447-0.569
		c0.108-0.226,0.163-0.489,0.163-0.79v-0.015c0-0.266-0.046-0.509-0.137-0.728C39.9,19.421,39.77,19.232,39.6,19.074z
		 M38.976,20.404c0,0.222-0.079,0.407-0.236,0.558s-0.379,0.226-0.665,0.226h-0.901v-1.581h0.879c0.286,0,0.511,0.066,0.676,0.199
		s0.248,0.328,0.248,0.584V20.404z"/>
	<polygon fill="#4E5982" points="45.417,21.652 47.854,21.652 47.854,20.641 45.417,20.641 45.417,19.592 48.187,19.592 
		48.187,18.58 44.294,18.58 44.294,23.75 48.224,23.75 48.224,22.738 45.417,22.738 	"/>
	<path fill="#4E5982" d="M54.339,18.543l-2.216,5.207h1.16l0.473-1.159h2.187l0.473,1.159h1.189l-2.216-5.207H54.339z
		 M54.162,21.586l0.687-1.677l0.687,1.677H54.162z"/>
	<polygon fill="#4E5982" points="65.197,21.763 62.774,18.58 61.726,18.58 61.726,23.75 62.848,23.75 62.848,20.463 65.352,23.75 
		66.319,23.75 66.319,18.58 65.197,18.58 	"/>
	<path fill="#4E5982" d="M79.734,21.198c-0.141-0.121-0.313-0.225-0.519-0.311c-0.204-0.086-0.438-0.163-0.699-0.232
		c-0.223-0.06-0.406-0.11-0.552-0.155c-0.146-0.044-0.261-0.091-0.345-0.141c-0.084-0.049-0.142-0.104-0.174-0.166
		s-0.048-0.134-0.048-0.218v-0.015c0-0.128,0.055-0.235,0.166-0.321c0.11-0.086,0.276-0.129,0.498-0.129s0.443,0.045,0.665,0.137
		c0.222,0.091,0.448,0.215,0.68,0.373l0.591-0.857c-0.266-0.212-0.558-0.374-0.875-0.487c-0.318-0.113-0.666-0.17-1.045-0.17
		c-0.267,0-0.51,0.037-0.73,0.11c-0.221,0.074-0.41,0.181-0.57,0.318c-0.158,0.138-0.281,0.302-0.37,0.491
		c-0.088,0.189-0.132,0.402-0.132,0.639v0.015c0,0.256,0.041,0.471,0.122,0.643c0.081,0.173,0.196,0.316,0.345,0.432
		c0.147,0.116,0.328,0.214,0.54,0.292c0.213,0.079,0.449,0.15,0.711,0.215c0.218,0.054,0.395,0.105,0.53,0.154
		c0.136,0.05,0.241,0.099,0.318,0.148c0.076,0.049,0.128,0.102,0.155,0.158s0.041,0.122,0.041,0.196v0.015
		c0,0.152-0.065,0.272-0.196,0.358c-0.13,0.086-0.313,0.129-0.55,0.129c-0.296,0-0.567-0.057-0.816-0.17s-0.491-0.266-0.728-0.458
		l-0.672,0.806c0.311,0.28,0.654,0.488,1.034,0.624c0.379,0.135,0.766,0.203,1.159,0.203c0.281,0,0.536-0.036,0.768-0.107
		c0.23-0.071,0.429-0.175,0.595-0.311c0.167-0.135,0.296-0.303,0.39-0.502c0.093-0.199,0.139-0.427,0.139-0.684v-0.015
		c0-0.227-0.035-0.421-0.107-0.583C79.981,21.46,79.875,21.318,79.734,21.198z"/>
	<path fill="#4E5982" d="M87.684,22.627c-0.205,0.108-0.455,0.163-0.75,0.163c-0.222,0-0.425-0.043-0.609-0.13
		c-0.185-0.086-0.343-0.203-0.473-0.351c-0.131-0.147-0.232-0.32-0.307-0.517c-0.074-0.197-0.11-0.406-0.11-0.628V21.15
		c0-0.222,0.036-0.43,0.11-0.624c0.074-0.195,0.178-0.366,0.311-0.514s0.291-0.264,0.476-0.348c0.186-0.083,0.386-0.125,0.603-0.125
		c0.261,0,0.496,0.052,0.705,0.155s0.415,0.246,0.617,0.428l0.724-0.834c-0.118-0.118-0.246-0.227-0.384-0.325
		c-0.139-0.099-0.288-0.183-0.451-0.251c-0.162-0.069-0.343-0.123-0.543-0.163c-0.199-0.039-0.42-0.059-0.661-0.059
		c-0.398,0-0.763,0.07-1.093,0.21c-0.33,0.141-0.613,0.333-0.85,0.576c-0.236,0.244-0.421,0.527-0.554,0.85
		s-0.199,0.669-0.199,1.038v0.015c0,0.369,0.066,0.717,0.199,1.041c0.133,0.325,0.317,0.607,0.554,0.846
		c0.236,0.239,0.518,0.428,0.843,0.565c0.324,0.138,0.677,0.207,1.056,0.207c0.251,0,0.478-0.021,0.68-0.063
		c0.202-0.041,0.388-0.103,0.558-0.185c0.17-0.081,0.326-0.178,0.469-0.291s0.281-0.241,0.414-0.385l-0.724-0.73
		C88.091,22.371,87.888,22.52,87.684,22.627z"/>
	<rect x="93.3" y="18.58" fill="#4E5982" width="1.138" height="5.17"/>
	<polygon fill="#4E5982" points="100.177,21.652 102.614,21.652 102.614,20.641 100.177,20.641 100.177,19.592 102.946,19.592 
		102.946,18.58 99.054,18.58 99.054,23.75 102.983,23.75 102.983,22.738 100.177,22.738 	"/>
	<polygon fill="#4E5982" points="110.798,21.763 108.375,18.58 107.326,18.58 107.326,23.75 108.449,23.75 108.449,20.463 
		110.953,23.75 111.921,23.75 111.921,18.58 110.798,18.58 	"/>
	<polygon fill="#4E5982" points="116.115,19.629 117.688,19.629 117.688,23.75 118.826,23.75 118.826,19.629 120.399,19.629 
		120.399,18.58 116.115,18.58 	"/>
	<rect x="124.646" y="18.58" fill="#4E5982" width="1.138" height="5.17"/>
	<polygon fill="#4E5982" points="130.4,23.75 131.538,23.75 131.538,21.748 134.005,21.748 134.005,20.722 131.538,20.722 
		131.538,19.606 134.338,19.606 134.338,18.58 130.4,18.58 	"/>
	<rect x="138.621" y="18.58" fill="#4E5982" width="1.138" height="5.17"/>
	<path fill="#4E5982" d="M148.193,22.185c-0.202,0.187-0.405,0.335-0.609,0.442c-0.205,0.108-0.455,0.163-0.75,0.163
		c-0.222,0-0.425-0.043-0.609-0.13c-0.185-0.086-0.343-0.203-0.473-0.351c-0.131-0.147-0.232-0.32-0.307-0.517
		c-0.074-0.197-0.11-0.406-0.11-0.628V21.15c0-0.222,0.036-0.43,0.11-0.624c0.074-0.195,0.178-0.366,0.311-0.514
		s0.291-0.264,0.476-0.348c0.186-0.083,0.386-0.125,0.603-0.125c0.261,0,0.496,0.052,0.705,0.155s0.415,0.246,0.617,0.428
		l0.724-0.834c-0.118-0.118-0.246-0.227-0.384-0.325c-0.139-0.099-0.288-0.183-0.451-0.251c-0.162-0.069-0.343-0.123-0.543-0.163
		c-0.199-0.039-0.42-0.059-0.661-0.059c-0.398,0-0.763,0.07-1.093,0.21c-0.33,0.141-0.613,0.333-0.85,0.576
		c-0.236,0.244-0.421,0.527-0.554,0.85s-0.199,0.669-0.199,1.038v0.015c0,0.369,0.066,0.717,0.199,1.041
		c0.133,0.325,0.317,0.607,0.554,0.846c0.236,0.239,0.518,0.428,0.843,0.565c0.324,0.138,0.677,0.207,1.056,0.207
		c0.251,0,0.478-0.021,0.68-0.063c0.202-0.041,0.388-0.103,0.558-0.185c0.17-0.081,0.326-0.178,0.469-0.291s0.281-0.241,0.414-0.385
		L148.193,22.185z"/>
</g>
</svg>
