<?xml version="1.0" encoding="utf-8"?>
<!-- Generator: Adobe Illustrator 14.0.0, SVG Export Plug-In . SVG Version: 6.00 Build 43363)  -->
<!DOCTYPE svg PUBLIC "-//W3C//DTD SVG 1.1//EN" "http://www.w3.org/Graphics/SVG/1.1/DTD/svg11.dtd">
<svg version="1.1" id="Layer_1" xmlns="http://www.w3.org/2000/svg" xmlns:xlink="http://www.w3.org/1999/xlink" x="0px" y="0px"
	 width="356.879px" height="60.999px" viewBox="0 0 356.879 60.999" enable-background="new 0 0 356.879 60.999"
	 xml:space="preserve">
<g>
	<path fill="#4E5982" d="M39.111,33.984c0,3.42-0.801,5.864-2.404,7.333c-1.603,1.47-3.687,2.204-6.251,2.204
		c-2.512,0-4.582-0.788-6.211-2.364c-1.63-1.575-2.444-4.1-2.444-7.574V2.888H2.725v30.937c0,4.648,0.653,8.629,1.963,11.941
		c1.309,3.314,3.166,6.039,5.57,8.176c2.404,2.137,5.302,3.699,8.696,4.688c3.392,0.988,7.173,1.482,11.34,1.482
		s7.975-0.494,11.421-1.482s6.384-2.551,8.816-4.688c2.431-2.137,4.314-4.89,5.65-8.256c1.335-3.366,2.003-7.454,2.003-12.262V2.888
		H39.111V33.984z"/>
	<path fill="#4E5982" d="M98.819,41.398c-1.603,1.31-3.74,1.963-6.412,1.963c-1.55,0-2.965-0.307-4.247-0.922
		c-1.282-0.613-2.392-1.469-3.326-2.564c-0.936-1.094-1.657-2.404-2.164-3.927c-0.508-1.522-0.761-3.192-0.761-5.009v-0.161
		c0-1.655,0.253-3.232,0.761-4.729c0.507-1.495,1.215-2.805,2.124-3.927c0.908-1.122,2.004-2.003,3.286-2.645
		s2.726-0.962,4.327-0.962c2.565,0,4.635,0.629,6.212,1.884c1.575,1.256,2.897,2.899,3.968,4.929l15.467-9.057
		c-1.176-2.136-2.578-4.1-4.207-5.891c-1.631-1.79-3.5-3.326-5.609-4.608c-2.111-1.282-4.463-2.284-7.054-3.005
		c-2.592-0.721-5.437-1.082-8.535-1.082c-4.167,0-8.068,0.735-11.701,2.204c-3.634,1.47-6.8,3.514-9.498,6.131
		c-2.699,2.618-4.809,5.718-6.332,9.297c-1.522,3.58-2.284,7.453-2.284,11.621v0.16c0,4.328,0.788,8.283,2.364,11.861
		c1.576,3.581,3.699,6.652,6.372,9.217c2.671,2.565,5.757,4.542,9.257,5.93c3.499,1.389,7.2,2.084,11.1,2.084
		c3.473,0,6.584-0.4,9.338-1.201c2.75-0.803,5.209-1.885,7.373-3.246c2.164-1.363,4.047-2.965,5.65-4.809
		c1.603-1.844,2.991-3.807,4.167-5.891l-15.468-8.736C101.811,38.393,100.422,40.089,98.819,41.398z"/>
	<path fill="#4E5982" d="M171.831,33.183c1.977-2.832,2.966-6.304,2.966-10.419v-0.161c0-2.885-0.429-5.396-1.282-7.534
		c-0.855-2.136-2.138-4.06-3.847-5.771c-1.978-1.976-4.583-3.539-7.814-4.688c-3.233-1.148-7.36-1.723-12.382-1.723h-27.41V58.99
		h18.754V42.96h3.847h0.161l10.578,16.03H176.8l-13.063-19.075C167.155,38.26,169.854,36.016,171.831,33.183z M156.123,24.126
		c0,1.71-0.642,3.045-1.923,4.007c-1.283,0.961-3.046,1.442-5.29,1.442h-8.095v-10.98h8.175c2.19,0,3.927,0.441,5.21,1.323
		c1.281,0.881,1.923,2.231,1.923,4.047V24.126z"/>
	<path fill="#4E5982" d="M189.281,34.915c-0.524,0.279-1.165,0.418-1.923,0.418c-0.567,0-1.088-0.11-1.562-0.333
		c-0.474-0.221-0.878-0.522-1.212-0.902s-0.596-0.823-0.785-1.33c-0.189-0.506-0.285-1.045-0.285-1.615v-0.038
		c0-0.57,0.096-1.105,0.285-1.605s0.453-0.94,0.795-1.32c0.341-0.38,0.748-0.678,1.221-0.893c0.474-0.215,0.988-0.323,1.543-0.323
		c0.67,0,1.272,0.133,1.809,0.399c0.537,0.266,1.064,0.634,1.582,1.102l1.855-2.147c-0.303-0.304-0.631-0.583-0.984-0.836
		s-0.738-0.468-1.156-0.646c-0.416-0.177-0.88-0.316-1.391-0.418c-0.512-0.101-1.076-0.152-1.695-0.152
		c-1.022,0-1.957,0.18-2.803,0.542c-0.846,0.361-1.571,0.855-2.178,1.482c-0.605,0.627-1.079,1.355-1.42,2.185
		s-0.512,1.719-0.512,2.669v0.038c0,0.95,0.171,1.843,0.512,2.679s0.814,1.562,1.42,2.176c0.606,0.614,1.326,1.099,2.159,1.453
		s1.735,0.532,2.708,0.532c0.644,0,1.225-0.054,1.742-0.162s0.994-0.266,1.43-0.475s0.836-0.459,1.202-0.75
		c0.366-0.291,0.72-0.62,1.061-0.988l-1.856-1.881C190.325,34.257,189.804,34.637,189.281,34.915z"/>
	<path fill="#4E5982" d="M206.549,26.28c-0.624-0.614-1.365-1.102-2.225-1.463c-0.858-0.361-1.799-0.542-2.821-0.542
		s-1.966,0.18-2.831,0.542c-0.864,0.361-1.609,0.855-2.234,1.482s-1.113,1.355-1.467,2.185s-0.531,1.719-0.531,2.669v0.038
		c0,0.95,0.174,1.84,0.521,2.669s0.833,1.552,1.458,2.166s1.366,1.102,2.226,1.463c0.857,0.361,1.799,0.542,2.82,0.542
		c1.023,0,1.967-0.181,2.832-0.542c0.863-0.361,1.609-0.855,2.234-1.482c0.624-0.627,1.113-1.355,1.467-2.185s0.53-1.72,0.53-2.669
		v-0.038c0-0.95-0.174-1.84-0.521-2.669C207.661,27.616,207.174,26.894,206.549,26.28z M205.48,31.191
		c0,0.57-0.098,1.105-0.294,1.605c-0.195,0.5-0.467,0.94-0.813,1.32c-0.348,0.38-0.767,0.678-1.259,0.893s-1.029,0.323-1.61,0.323
		c-0.593,0-1.133-0.11-1.618-0.333c-0.486-0.221-0.91-0.522-1.27-0.902s-0.637-0.823-0.833-1.33
		c-0.196-0.506-0.294-1.045-0.294-1.615v-0.038c0-0.57,0.098-1.105,0.294-1.605s0.467-0.94,0.814-1.32
		c0.347-0.38,0.764-0.678,1.249-0.893c0.486-0.215,1.025-0.323,1.619-0.323c0.581,0,1.117,0.111,1.609,0.333
		c0.493,0.222,0.919,0.522,1.279,0.902c0.359,0.38,0.637,0.824,0.832,1.33c0.196,0.507,0.294,1.045,0.294,1.615V31.191z"/>
	<polygon fill="#4E5982" points="220.647,35.162 214.04,35.162 214.04,24.503 211.124,24.503 211.124,37.803 220.647,37.803 	"/>
	<polygon fill="#4E5982" points="232.368,35.162 225.76,35.162 225.76,24.503 222.844,24.503 222.844,37.803 232.368,37.803 	"/>
	<path fill="#4E5982" d="M244.43,37.803h3.049l-5.681-13.395h-2.688l-5.682,13.395h2.973l1.213-2.983h5.604L244.43,37.803z
		 M238.655,32.236l1.762-4.313l1.76,4.313H238.655z"/>
	<path fill="#4E5982" d="M260.422,35.751c0.232-0.456,0.35-0.988,0.35-1.596v-0.038c0-0.886-0.221-1.58-0.66-2.081
		c-0.439-0.5-1.043-0.896-1.81-1.188c0.238-0.126,0.46-0.278,0.668-0.456c0.207-0.177,0.389-0.383,0.546-0.617
		c0.156-0.234,0.281-0.497,0.376-0.789c0.094-0.292,0.142-0.627,0.142-1.007v-0.038c0-0.899-0.303-1.653-0.908-2.261
		c-0.781-0.785-1.934-1.178-3.459-1.178h-6.143v13.3h6.295c0.743,0,1.42-0.076,2.031-0.228s1.135-0.38,1.57-0.684
		C259.854,36.587,260.188,36.207,260.422,35.751z M252.364,27.068h2.879c0.618,0,1.092,0.117,1.42,0.352s0.492,0.573,0.492,1.016
		v0.038c0,0.494-0.189,0.852-0.568,1.074s-0.89,0.333-1.533,0.333h-2.689V27.068z M257.893,33.794c0,0.494-0.184,0.858-0.549,1.092
		c-0.366,0.234-0.871,0.352-1.516,0.352h-3.465v-2.926h3.371c0.758,0,1.307,0.13,1.646,0.39c0.342,0.26,0.512,0.611,0.512,1.055
		V33.794z"/>
	<path fill="#4E5982" d="M276.696,31.153v-0.038c0-0.95-0.174-1.84-0.52-2.669c-0.348-0.83-0.834-1.552-1.459-2.166
		s-1.366-1.102-2.225-1.463c-0.859-0.361-1.799-0.542-2.822-0.542c-1.021,0-1.966,0.18-2.83,0.542
		c-0.865,0.361-1.609,0.855-2.234,1.482s-1.114,1.355-1.468,2.185s-0.53,1.719-0.53,2.669v0.038c0,0.95,0.174,1.84,0.521,2.669
		c0.347,0.83,0.832,1.552,1.457,2.166s1.367,1.102,2.226,1.463s1.799,0.542,2.821,0.542s1.966-0.181,2.831-0.542
		c0.864-0.361,1.609-0.855,2.234-1.482c0.624-0.627,1.114-1.355,1.468-2.185S276.696,32.103,276.696,31.153z M273.647,31.191
		c0,0.57-0.098,1.105-0.293,1.605s-0.467,0.94-0.814,1.32s-0.767,0.678-1.259,0.893s-1.029,0.323-1.61,0.323
		c-0.593,0-1.133-0.11-1.618-0.333c-0.486-0.221-0.909-0.522-1.269-0.902s-0.638-0.823-0.834-1.33
		c-0.195-0.506-0.293-1.045-0.293-1.615v-0.038c0-0.57,0.098-1.105,0.293-1.605c0.196-0.5,0.467-0.94,0.814-1.32
		c0.348-0.38,0.764-0.678,1.25-0.893s1.025-0.323,1.619-0.323c0.58,0,1.117,0.111,1.609,0.333c0.492,0.222,0.918,0.522,1.278,0.902
		c0.36,0.38,0.638,0.824,0.833,1.33c0.195,0.507,0.293,1.045,0.293,1.615V31.191z"/>
	<path fill="#4E5982" d="M289.563,31.562c0.523-0.677,0.785-1.555,0.785-2.631v-0.038c0-1.266-0.378-2.28-1.136-3.04
		c-0.896-0.899-2.185-1.349-3.862-1.349h-6.06v13.3h2.916v-4.256h2.253h0.038l2.841,4.256h3.408l-3.238-4.75
		C288.354,32.737,289.04,32.239,289.563,31.562z M287.395,29.082c0,0.57-0.193,1.026-0.578,1.368s-0.938,0.513-1.656,0.513h-2.954
		v-3.819h2.897c0.719,0,1.281,0.159,1.686,0.475c0.403,0.317,0.605,0.792,0.605,1.425V29.082z"/>
	<path fill="#4E5982" d="M297.526,24.408l-5.682,13.395h2.973l1.213-2.983h5.604l1.212,2.983h3.049l-5.681-13.395H297.526z
		 M297.071,32.236l1.762-4.313l1.76,4.313H297.071z"/>
	<polygon fill="#4E5982" points="306.993,27.201 311.026,27.201 311.026,37.803 313.942,37.803 313.942,27.201 317.975,27.201 
		317.975,24.503 306.993,24.503 	"/>
	<rect x="320.342" y="24.503" fill="#4E5982" width="2.916" height="13.3"/>
	<path fill="#4E5982" d="M338.094,26.28c-0.624-0.614-1.365-1.102-2.225-1.463c-0.858-0.361-1.799-0.542-2.821-0.542
		s-1.966,0.18-2.831,0.542c-0.864,0.361-1.609,0.855-2.234,1.482s-1.113,1.355-1.467,2.185s-0.531,1.719-0.531,2.669v0.038
		c0,0.95,0.174,1.84,0.521,2.669s0.833,1.552,1.458,2.166s1.366,1.102,2.226,1.463c0.857,0.361,1.799,0.542,2.82,0.542
		c1.023,0,1.967-0.181,2.832-0.542c0.863-0.361,1.609-0.855,2.234-1.482c0.624-0.627,1.113-1.355,1.467-2.185s0.53-1.72,0.53-2.669
		v-0.038c0-0.95-0.174-1.84-0.521-2.669C339.206,27.616,338.719,26.894,338.094,26.28z M337.025,31.191
		c0,0.57-0.098,1.105-0.294,1.605c-0.195,0.5-0.467,0.94-0.813,1.32c-0.348,0.38-0.767,0.678-1.259,0.893s-1.029,0.323-1.61,0.323
		c-0.593,0-1.133-0.11-1.618-0.333c-0.486-0.221-0.91-0.522-1.27-0.902s-0.637-0.823-0.833-1.33
		c-0.196-0.506-0.294-1.045-0.294-1.615v-0.038c0-0.57,0.098-1.105,0.294-1.605s0.467-0.94,0.814-1.32
		c0.347-0.38,0.764-0.678,1.249-0.893c0.486-0.215,1.025-0.323,1.619-0.323c0.581,0,1.117,0.111,1.609,0.333
		c0.493,0.222,0.919,0.522,1.279,0.902c0.359,0.38,0.637,0.824,0.832,1.33c0.196,0.507,0.294,1.045,0.294,1.615V31.191z"/>
	<polygon fill="#4E5982" points="351.567,24.503 351.567,32.692 345.356,24.503 342.668,24.503 342.668,37.803 345.545,37.803 
		345.545,29.348 351.965,37.803 354.446,37.803 354.446,24.503 	"/>
	<path fill="#4E5982" d="M186.583,17.3c0.883,0,1.686-0.124,2.404-0.371c0.72-0.247,1.332-0.62,1.837-1.121
		c0.505-0.5,0.894-1.124,1.165-1.871s0.406-1.627,0.406-2.641V3.791h-2.916v7.619c0,1.064-0.252,1.862-0.757,2.394
		c-0.505,0.532-1.206,0.798-2.103,0.798s-1.597-0.276-2.102-0.827c-0.505-0.551-0.758-1.371-0.758-2.46V3.791h-2.916v7.6
		c0,1.964,0.512,3.439,1.534,4.427C183.401,16.806,184.802,17.3,186.583,17.3z"/>
	<polygon fill="#4E5982" points="199.383,8.636 205.802,17.091 208.283,17.091 208.283,3.791 205.405,3.791 205.405,11.98 
		199.194,3.791 196.504,3.791 196.504,17.091 199.383,17.091 	"/>
	<rect x="212.733" y="3.791" fill="#4E5982" width="2.916" height="13.3"/>
	<polygon fill="#4E5982" points="226.897,17.186 232.255,3.791 229.112,3.791 225.647,13.158 222.181,3.791 218.962,3.791 
		224.321,17.186 	"/>
	<polygon fill="#4E5982" points="245.51,14.488 238.315,14.488 238.315,11.695 244.563,11.695 244.563,9.092 238.315,9.092 
		238.315,6.394 245.416,6.394 245.416,3.791 235.436,3.791 235.436,17.091 245.51,17.091 	"/>
	<path fill="#4E5982" d="M252.175,12.835h2.253h0.038l2.841,4.256h3.408l-3.238-4.75c0.846-0.316,1.531-0.814,2.055-1.492
		c0.523-0.677,0.785-1.555,0.785-2.631V8.18c0-1.266-0.378-2.28-1.136-3.04c-0.896-0.899-2.185-1.349-3.862-1.349h-6.06v13.3h2.916
		V12.835z M252.175,6.432h2.897c0.719,0,1.281,0.159,1.686,0.475c0.403,0.317,0.605,0.792,0.605,1.425V8.37
		c0,0.57-0.193,1.026-0.578,1.368s-0.938,0.513-1.656,0.513h-2.954V6.432z"/>
	<path fill="#4E5982" d="M270.288,14.364c-0.335,0.222-0.805,0.333-1.411,0.333c-0.757,0-1.455-0.146-2.093-0.437
		c-0.637-0.291-1.259-0.684-1.865-1.178l-1.723,2.071c0.795,0.722,1.679,1.257,2.65,1.605c0.973,0.348,1.963,0.522,2.974,0.522
		c0.72,0,1.374-0.092,1.966-0.275s1.101-0.45,1.527-0.798c0.426-0.349,0.758-0.779,0.996-1.292c0.238-0.513,0.357-1.099,0.357-1.758
		V13.12c0-0.583-0.092-1.083-0.275-1.501c-0.183-0.418-0.455-0.782-0.815-1.092c-0.361-0.31-0.804-0.576-1.329-0.798
		s-1.123-0.421-1.795-0.599c-0.569-0.152-1.041-0.285-1.414-0.399c-0.373-0.114-0.668-0.234-0.883-0.361
		c-0.215-0.126-0.363-0.269-0.446-0.427c-0.082-0.158-0.123-0.345-0.123-0.561V7.344c0-0.329,0.142-0.604,0.426-0.827
		c0.284-0.221,0.71-0.332,1.278-0.332s1.137,0.117,1.704,0.351c0.567,0.235,1.148,0.555,1.742,0.959l1.515-2.204
		c-0.682-0.544-1.43-0.962-2.244-1.254c-0.814-0.291-1.707-0.437-2.68-0.437c-0.682,0-1.305,0.095-1.871,0.285
		c-0.565,0.19-1.053,0.462-1.46,0.817c-0.407,0.355-0.725,0.776-0.95,1.264c-0.226,0.488-0.338,1.036-0.338,1.644v0.038
		c0,0.659,0.104,1.209,0.312,1.653s0.504,0.814,0.883,1.111c0.38,0.298,0.842,0.548,1.387,0.75c0.544,0.203,1.151,0.387,1.822,0.551
		c0.557,0.14,1.01,0.272,1.357,0.399c0.348,0.127,0.62,0.253,0.816,0.38c0.196,0.127,0.329,0.263,0.398,0.409
		c0.07,0.146,0.105,0.313,0.105,0.503v0.038C270.79,13.835,270.622,14.143,270.288,14.364z"/>
	<path fill="#4E5982" d="M280.389,14.108h5.605l1.211,2.983h3.049l-5.68-13.395h-2.689l-5.681,13.395h2.973L280.389,14.108z
		 M283.192,7.211l1.761,4.313h-3.522L283.192,7.211z"/>
	<polygon fill="#4E5982" points="302.96,14.45 296.352,14.45 296.352,3.791 293.436,3.791 293.436,17.091 302.96,17.091 	"/>
	<path fill="#4E5982" d="M190.993,53.229c0.523-0.678,0.785-1.555,0.785-2.632v-0.038c0-1.266-0.378-2.28-1.136-3.04
		c-0.896-0.899-2.185-1.349-3.862-1.349h-6.06v13.3h2.916v-4.256h2.253h0.038l2.841,4.256h3.408l-3.238-4.75
		C189.784,54.403,190.469,53.906,190.993,53.229z M188.825,50.749c0,0.57-0.193,1.026-0.578,1.368s-0.938,0.513-1.656,0.513h-2.954
		v-3.819h2.897c0.719,0,1.281,0.159,1.686,0.475c0.403,0.317,0.605,0.792,0.605,1.425V50.749z"/>
	<polygon fill="#4E5982" points="199.75,54.074 205.999,54.074 205.999,51.471 199.75,51.471 199.75,48.773 206.851,48.773 
		206.851,46.17 196.872,46.17 196.872,59.47 206.946,59.47 206.946,56.867 199.75,56.867 	"/>
	<path fill="#4E5982" d="M220.51,52.905c-0.361-0.31-0.804-0.576-1.328-0.798c-0.526-0.222-1.124-0.421-1.795-0.599
		c-0.57-0.152-1.041-0.285-1.414-0.399c-0.374-0.114-0.668-0.234-0.883-0.361c-0.216-0.126-0.364-0.269-0.447-0.427
		c-0.082-0.158-0.123-0.345-0.123-0.561v-0.038c0-0.329,0.143-0.604,0.426-0.827c0.285-0.221,0.711-0.332,1.279-0.332
		c0.567,0,1.136,0.117,1.703,0.351c0.568,0.235,1.148,0.555,1.742,0.959l1.516-2.204c-0.682-0.544-1.43-0.962-2.244-1.254
		c-0.814-0.291-1.707-0.437-2.68-0.437c-0.682,0-1.306,0.095-1.871,0.285c-0.566,0.19-1.053,0.462-1.461,0.817
		c-0.407,0.355-0.725,0.776-0.949,1.264c-0.227,0.488-0.339,1.036-0.339,1.644v0.038c0,0.659,0.104,1.209,0.313,1.653
		s0.503,0.814,0.883,1.111c0.379,0.298,0.842,0.549,1.386,0.75c0.544,0.203,1.151,0.387,1.823,0.552
		c0.557,0.14,1.009,0.272,1.357,0.399c0.348,0.127,0.619,0.253,0.816,0.379c0.195,0.127,0.328,0.264,0.398,0.409
		c0.069,0.146,0.104,0.313,0.104,0.503v0.039c0,0.393-0.167,0.699-0.502,0.921s-0.805,0.333-1.411,0.333
		c-0.757,0-1.455-0.146-2.092-0.438c-0.638-0.291-1.26-0.684-1.865-1.178l-1.723,2.07c0.795,0.723,1.678,1.258,2.65,1.605
		c0.973,0.349,1.963,0.523,2.973,0.523c0.72,0,1.375-0.092,1.967-0.275c0.591-0.184,1.1-0.45,1.526-0.799
		c0.427-0.348,0.759-0.779,0.997-1.291c0.238-0.514,0.357-1.1,0.357-1.758v-0.039c0-0.582-0.092-1.082-0.275-1.5
		S220.872,53.216,220.51,52.905z"/>
	<polygon fill="#4E5982" points="229.479,54.074 235.728,54.074 235.728,51.471 229.479,51.471 229.479,48.773 236.581,48.773 
		236.581,46.17 226.601,46.17 226.601,59.47 236.674,59.47 236.674,56.867 229.479,56.867 	"/>
	<path fill="#4E5982" d="M246.294,46.075l-5.681,13.395h2.973l1.212-2.983h5.604l1.213,2.983h3.049l-5.682-13.395H246.294z
		 M245.84,53.902l1.761-4.312l1.761,4.312H245.84z"/>
	<path fill="#4E5982" d="M269.443,53.229c0.523-0.678,0.786-1.555,0.786-2.632v-0.038c0-1.266-0.379-2.28-1.137-3.04
		c-0.896-0.899-2.184-1.349-3.863-1.349h-6.059v13.3h2.916v-4.256h2.254h0.037l2.84,4.256h3.409l-3.238-4.75
		C268.234,54.403,268.918,53.906,269.443,53.229z M267.275,50.749c0,0.57-0.192,1.026-0.577,1.368
		c-0.386,0.342-0.938,0.513-1.658,0.513h-2.953v-3.819h2.896c0.721,0,1.281,0.159,1.686,0.475c0.404,0.317,0.606,0.792,0.606,1.425
		V50.749z"/>
	<path fill="#4E5982" d="M283.55,56.582C283.026,56.86,282.385,57,281.627,57c-0.567,0-1.088-0.111-1.562-0.333
		s-0.878-0.522-1.212-0.902s-0.596-0.823-0.785-1.33s-0.285-1.045-0.285-1.615v-0.038c0-0.57,0.096-1.105,0.285-1.605
		s0.453-0.94,0.795-1.32c0.341-0.38,0.748-0.678,1.221-0.893c0.474-0.215,0.988-0.323,1.543-0.323c0.67,0,1.272,0.133,1.809,0.399
		c0.537,0.266,1.064,0.634,1.582,1.102l1.855-2.147c-0.303-0.304-0.631-0.583-0.984-0.836s-0.738-0.468-1.156-0.646
		c-0.416-0.177-0.88-0.316-1.391-0.418c-0.512-0.101-1.076-0.152-1.695-0.152c-1.022,0-1.957,0.18-2.803,0.542
		c-0.846,0.361-1.571,0.855-2.178,1.482c-0.605,0.627-1.079,1.355-1.42,2.185s-0.512,1.719-0.512,2.669v0.038
		c0,0.95,0.171,1.843,0.512,2.679s0.814,1.561,1.42,2.176c0.606,0.613,1.326,1.098,2.159,1.453c0.833,0.354,1.735,0.531,2.708,0.531
		c0.644,0,1.225-0.054,1.742-0.161s0.994-0.267,1.43-0.476s0.836-0.459,1.202-0.75s0.72-0.62,1.061-0.988l-1.856-1.881
		C284.594,55.924,284.074,56.303,283.55,56.582z"/>
	<polygon fill="#4E5982" points="300.052,51.433 294.674,51.433 294.674,46.17 291.758,46.17 291.758,59.47 294.674,59.47 
		294.674,54.131 300.052,54.131 300.052,59.47 302.969,59.47 302.969,46.17 300.052,46.17 	"/>
</g>
</svg>
